<svg xmlns="http://www.w3.org/2000/svg" viewBox="0 0 200 200" role="img" aria-labelledby="title desc">
  <title id="title">GameForest brand icon</title>
  <desc id="desc">Stylized PC monitor with PlayStation and Xbox controllers and a small winter accent.</desc>
  <defs>
    <linearGradient id="g1" x1="0%" y1="0%" x2="100%" y2="100%">
      <stop offset="0%" stop-color="#7EC8FF"/>
      <stop offset="100%" stop-color="#5B7CFF"/>
    </linearGradient>
    <linearGradient id="g2" x1="0%" y1="0%" x2="100%" y2="0%">
      <stop offset="0%" stop-color="#0E1A2B"/>
      <stop offset="100%" stop-color="#111D2F"/>
    </linearGradient>
    <linearGradient id="g3" x1="0%" y1="0%" x2="0%" y2="100%">
      <stop offset="0%" stop-color="#A9D8FF"/>
      <stop offset="100%" stop-color="#E8F3FF"/>
    </linearGradient>
  </defs>
  <rect x="10" y="10" width="180" height="180" rx="28" fill="url(#g2)"/>
  <rect x="32" y="36" width="136" height="86" rx="12" fill="url(#g1)" stroke="#E6F1FF" stroke-width="3" opacity="0.95"/>
  <rect x="62" y="50" width="78" height="54" rx="10" fill="url(#g3)" stroke="#0E1A2B" stroke-width="2"/>
  <rect x="90" y="124" width="20" height="14" rx="4" fill="#7EC8FF"/>
  <rect x="76" y="138" width="48" height="8" rx="4" fill="#1E2A3C"/>
  <g transform="translate(38 102)">
    <rect x="0" y="0" width="44" height="30" rx="12" fill="#101B2B" stroke="#2E3D55" stroke-width="3"/>
    <circle cx="15" cy="15" r="4" fill="#7EC8FF"/>
    <g fill="#52C99F">
      <circle cx="28" cy="10" r="3"/>
      <circle cx="28" cy="20" r="3"/>
    </g>
    <circle cx="36" cy="15" r="3.2" fill="#F4C16C"/>
  </g>
  <g transform="translate(118 102)">
    <rect x="0" y="0" width="44" height="30" rx="12" fill="#101B2B" stroke="#2E3D55" stroke-width="3"/>
    <rect x="12" y="13" width="20" height="4" rx="2" fill="#7EC8FF"/>
    <rect x="18" y="7" width="4" height="20" rx="2" fill="#7EC8FF"/>
    <circle cx="10" cy="9" r="3.2" fill="#52C99F"/>
    <circle cx="34" cy="21" r="3.2" fill="#F0727F"/>
  </g>
  <path d="M75 28c7.5-5 21.5-8 32.5-6.5s21 7 26.5 13.5l-7 6.5c-4.4-5.2-11-8.5-18.6-9.5S91 33 84 37z" fill="#F4C16C"/>
  <rect x="82" y="18" width="18" height="10" rx="3" fill="#E8F3FF" opacity="0.8"/>
  <g transform="translate(150 34)">
    <path d="M9 2a2 2 0 0 1 3 0l6 6a2 2 0 0 1-1.4 3.4H4.4A2 2 0 0 1 3 8l6-6Z" fill="#E8F3FF"/>
    <circle cx="10.5" cy="12.5" r="3" fill="#7EC8FF"/>
  </g>
</svg>
